<?xml version="1.0" encoding="utf-8"?>
<!-- Generator: Adobe Illustrator 19.1.0, SVG Export Plug-In . SVG Version: 6.00 Build 0)  -->
<svg version="1.1" id="Layer_1" xmlns="http://www.w3.org/2000/svg" xmlns:xlink="http://www.w3.org/1999/xlink" x="0px" y="0px"
	 width="301.5px" height="560px" viewBox="0 0 301.5 560" style="enable-background:new 0 0 301.5 560;" xml:space="preserve">
<style type="text/css">
	.st0{fill:none;stroke:#000000;stroke-width:6;stroke-miterlimit:10;}
	.st1{fill:none;stroke:#000000;stroke-miterlimit:10;}
</style>
<path class="st0" d="M291.3,31.8V529c0,6.6-5.4,12-12,12H23.9c-6.6,0-12-5.4-12-12V31.8c0-6.6,5.4-12,12-12h255.4
	C285.9,19.8,291.3,25.2,291.3,31.8z"/>
<path class="st1" d="M282.4,47v421.8c0,6.6-5.4,12-12,12H33.3c-6.6,0-12-5.4-12-12V47c0-6.6,5.4-12,12-12h237.1
	C277,35,282.4,40.4,282.4,47z"/>
<circle class="st1" cx="148.6" cy="511.4" r="14"/>
</svg>
